<svg width="15" height="15" viewBox="0 0 15 15" fill="none" xmlns="http://www.w3.org/2000/svg">
<g id="akar-icons:star">
<path id="Vector" d="M7.05138 2.11363C7.23805 1.6213 7.94447 1.6213 8.13172 2.11363L9.33922 5.45847C9.38134 5.56743 9.45552 5.66105 9.55196 5.72697C9.6484 5.7929 9.76256 5.82803 9.87938 5.82772H12.8468C13.3951 5.82772 13.6343 6.51022 13.2032 6.84447L11.0915 8.74438C10.997 8.8171 10.9278 8.91791 10.8941 9.03235C10.8603 9.14679 10.8637 9.26898 10.9037 9.38138L11.6749 12.6498C11.8627 13.1748 11.2549 13.6257 10.7952 13.3026L7.92697 11.4826C7.82874 11.4135 7.71161 11.3765 7.59155 11.3765C7.47149 11.3765 7.35436 11.4135 7.25613 11.4826L4.38788 13.3026C3.9288 13.6257 3.32038 13.1742 3.50822 12.6498L4.27938 9.38138C4.31939 9.26898 4.32276 9.14679 4.28901 9.03235C4.25527 8.91791 4.18614 8.8171 4.09155 8.74438L1.97988 6.84447C1.54822 6.51022 1.78855 5.82772 2.33572 5.82772H5.30313C5.41997 5.82811 5.53417 5.79301 5.63063 5.72708C5.72708 5.66114 5.80124 5.56747 5.8433 5.45847L7.0508 2.11363H7.05138Z" fill="#FFD057" stroke="#FFD057" stroke-linecap="round" stroke-linejoin="round"/>
</g>
</svg>
